<svg width="16" height="16" viewBox="0 0 16 16" fill="none" xmlns="http://www.w3.org/2000/svg">
<path d="M4.66674 1.99984V0.666504H6.00007V1.99984H10.0001V0.666504H11.3334V1.99984H14.0001C14.3683 1.99984 14.6667 2.29832 14.6667 2.6665V5.99984H13.3334V3.33317H11.3334V4.6665H10.0001V3.33317H6.00007V4.6665H4.66674V3.33317H2.66674V12.6665H6.66674V13.9998H2.00007C1.63188 13.9998 1.3334 13.7014 1.3334 13.3332V2.6665C1.3334 2.29832 1.63188 1.99984 2.00007 1.99984H4.66674ZM11.3334 7.99984C9.86067 7.99984 8.66674 9.19377 8.66674 10.6665C8.66674 12.1392 9.86067 13.3332 11.3334 13.3332C12.8061 13.3332 14.0001 12.1392 14.0001 10.6665C14.0001 9.19377 12.8061 7.99984 11.3334 7.99984ZM7.3334 10.6665C7.3334 8.45737 9.12427 6.6665 11.3334 6.6665C13.5425 6.6665 15.3334 8.45737 15.3334 10.6665C15.3334 12.8756 13.5425 14.6665 11.3334 14.6665C9.12427 14.6665 7.3334 12.8756 7.3334 10.6665ZM10.6667 8.6665V10.9426L12.1953 12.4712L13.1381 11.5284L12.0001 10.3904V8.6665H10.6667Z" fill="white"/>
</svg>
