<svg width="16" height="16" viewBox="0 0 16 16" fill="none" xmlns="http://www.w3.org/2000/svg">
<path d="M8.00007 1.33301C11.6819 1.33301 14.6667 4.31777 14.6667 7.99967C14.6667 11.6815 11.6819 14.6663 8.00007 14.6663C4.31817 14.6663 1.3334 11.6815 1.3334 7.99967H2.66674C2.66674 10.9452 5.05455 13.333 8.00007 13.333C10.9456 13.333 13.3334 10.9452 13.3334 7.99967C13.3334 5.05415 10.9456 2.66634 8.00007 2.66634C6.16688 2.66634 4.54972 3.59123 3.58974 4.99983L5.3334 4.99967V6.33301H1.3334V2.33301H2.66674L2.66666 3.99913C3.88296 2.38017 5.81922 1.33301 8.00007 1.33301ZM8.66674 4.66634L8.6666 7.72301L10.8285 9.88527L9.88567 10.8281L7.33327 8.27501L7.3334 4.66634H8.66674Z" fill="white"/>
</svg>
