<?xml version="1.0" standalone="no"?><!DOCTYPE svg PUBLIC "-//W3C//DTD SVG 1.1//EN" "http://www.w3.org/Graphics/SVG/1.1/DTD/svg11.dtd"><svg t="1761549830509" class="icon" viewBox="0 0 1024 1024" version="1.1" xmlns="http://www.w3.org/2000/svg" p-id="27450" width="256" height="256" xmlns:xlink="http://www.w3.org/1999/xlink"><path d="M789.333333 469.248a149.333333 149.333333 0 0 0-149.333333 149.333333 147.669333 147.669333 0 0 0 15.786667 65.493334l-81.152 84.992-3.669334 3.626666a85.845333 85.845333 0 0 1-121.472-3.797333 99.968 99.968 0 0 1-0.213333-136.832l187.733333-195.968a185.514667 185.514667 0 0 0 0-253.994667 179.925333 179.925333 0 0 0-7.552-7.552 171.221333 171.221333 0 0 0-241.792 7.168L301.056 272.213333A147.413333 147.413333 0 0 0 234.837333 256a149.333333 149.333333 0 1 0 149.333334 149.333333 147.669333 147.669333 0 0 0-20.821334-74.752l86.229334-90.154666a85.333333 85.333333 0 0 1 59.989333-27.008 81.962667 81.962667 0 0 1 61.184 23.04l4.010667 4.010666a100.053333 100.053333 0 0 1 0.256 136.874667l-187.733334 195.968a185.429333 185.429333 0 0 0 0 254.08 170.24 170.24 0 0 0 119.466667 53.888h5.376a169.728 169.728 0 0 0 117.077333-46.378667c2.645333-2.474667 5.162667-5.034667 7.296-7.253333l77.44-80.853333a147.413333 147.413333 0 0 0 75.392 21.333333 149.333333 149.333333 0 0 0 0-298.666667z m-554.666666 0a64 64 0 1 1 64-64 64 64 0 0 1-64 64z m554.666666 213.333333a64 64 0 1 1 64-64 64 64 0 0 1-64 64z" p-id="27451" fill="#ffffff"></path></svg>