<?xml version="1.0" standalone="no"?><!DOCTYPE svg PUBLIC "-//W3C//DTD SVG 1.1//EN" "http://www.w3.org/Graphics/SVG/1.1/DTD/svg11.dtd"><svg t="1761549986834" class="icon" viewBox="0 0 1024 1024" version="1.1" xmlns="http://www.w3.org/2000/svg" p-id="30357" width="256" height="256" xmlns:xlink="http://www.w3.org/1999/xlink"><path d="M925.184 361.472H98.816c-30.208 0-55.296-24.576-55.296-55.296V58.88c0-30.208 24.576-55.296 55.296-55.296h826.368c30.208 0 55.296 24.576 55.296 55.296v247.808c-0.512 30.208-25.088 54.784-55.296 54.784z m-804.352-76.8h781.824V80.896H120.832v203.776z" p-id="30358" fill="#ffffff"></path><path d="M209.408 147.456h110.08v77.312h-110.08z m715.776 682.496H98.816c-30.208 0-55.296-24.576-55.296-55.296V527.36c0-30.208 24.576-55.296 55.296-55.296h826.368c30.208 0 55.296 24.576 55.296 55.296v247.808c-0.512 30.208-25.088 54.784-55.296 54.784z m-804.352-76.8h781.824V549.376H120.832v203.776z" p-id="30359" fill="#ffffff"></path><path d="M209.408 616.448h110.08v77.312h-110.08z m770.56 400.896H44.032c-21.504 0-38.4-17.408-38.4-38.4s17.408-38.4 38.4-38.4H980.48c21.504 0 38.4 17.408 38.4 38.4s-17.408 38.4-38.912 38.4z" p-id="30360" fill="#ffffff"></path></svg>