<svg width="56" height="59" viewBox="0 0 56 59" fill="none" xmlns="http://www.w3.org/2000/svg">
<path opacity="0.154715" d="M27.6484 28.6572L1.15039 39.4775V11.043L27.6484 0.222656V28.6572Z" fill="url(#paint0_linear_186_4277)" stroke="url(#paint1_linear_186_4277)" stroke-width="0.3" stroke-linejoin="round"/>
<path opacity="0.154715" d="M26.9541 28.6572L53.4521 39.4775L53.4521 11.043L26.9541 0.222656L26.9541 28.6572Z" fill="url(#paint2_linear_186_4277)" stroke="url(#paint3_linear_186_4277)" stroke-width="0.3" stroke-linejoin="round"/>
<path opacity="0.150437" fill-rule="evenodd" clip-rule="evenodd" d="M1 46.4419L27.7734 58.5556L54.5975 46.4439L27.8241 35.7275L1 46.4419V46.4419Z" stroke="url(#paint4_linear_186_4277)" stroke-width="0.6"/>
<path opacity="0.304594" fill-rule="evenodd" clip-rule="evenodd" d="M1 42.9703L27.7734 55.0839L54.5975 42.9722L27.8241 32.2559L1 42.9703Z" fill="url(#paint5_linear_186_4277)" fill-opacity="0.8" stroke="url(#paint6_linear_186_4277)" stroke-width="0.3" stroke-linejoin="bevel"/>
<path fill-rule="evenodd" clip-rule="evenodd" d="M1 39.4986L27.7734 51.6122L54.5975 39.5005L27.8241 28.7842L1 39.4986Z" fill="url(#paint7_linear_186_4277)" fill-opacity="0.5" stroke="url(#paint8_linear_186_4277)" stroke-width="1.2" stroke-linejoin="bevel"/>
<path d="M27.9996 4.08301C32.6019 4.08301 36.3336 7.81462 36.3336 12.417V23.3643C40.1114 25.9994 42.5835 30.3777 42.5836 35.333C42.5836 43.3872 36.0538 49.917 27.9996 49.917C19.9456 49.9169 13.4166 43.3871 13.4166 35.333C13.4167 30.3776 15.8887 25.9994 19.6666 23.3643V12.417C19.6666 7.8147 23.3974 4.08314 27.9996 4.08301ZM27.9996 8.25C25.6985 8.25013 23.8336 10.1159 23.8336 12.417V25.5381L22.0504 26.7812C19.2697 28.7208 17.5837 31.8815 17.5836 35.333C17.5836 41.0858 22.2468 45.7499 27.9996 45.75C33.7526 45.75 38.4166 41.0859 38.4166 35.333C38.4165 31.8815 36.7305 28.7208 33.9498 26.7812L32.1666 25.5381V12.417C32.1666 10.1158 30.3009 8.25 27.9996 8.25ZM30.0836 27.2627C33.6775 28.188 36.3335 31.4504 36.3336 35.333C36.3336 39.9353 32.6019 43.667 27.9996 43.667C23.3974 43.6669 19.6666 39.9352 19.6666 35.333C19.6668 31.4502 22.3225 28.1879 25.9166 27.2627V12.417H30.0836V27.2627Z" fill="url(#paint9_linear_186_4277)"/>
<defs>
<linearGradient id="paint0_linear_186_4277" x1="-4.37505" y1="31.4641" x2="24.6108" y2="39.3128" gradientUnits="userSpaceOnUse">
<stop stop-color="#95BCFF"/>
<stop offset="1" stop-color="#1A2A4E"/>
</linearGradient>
<linearGradient id="paint1_linear_186_4277" x1="-4.85745" y1="31.1537" x2="24.5057" y2="39.8181" gradientUnits="userSpaceOnUse">
<stop stop-color="#00CBFF"/>
<stop offset="1" stop-color="#00B9FF" stop-opacity="0.01"/>
</linearGradient>
<linearGradient id="paint2_linear_186_4277" x1="58.9776" y1="31.4641" x2="29.9918" y2="39.3128" gradientUnits="userSpaceOnUse">
<stop stop-color="#95BCFF"/>
<stop offset="1" stop-color="#1C2C52"/>
</linearGradient>
<linearGradient id="paint3_linear_186_4277" x1="59.46" y1="31.1537" x2="30.0968" y2="39.8181" gradientUnits="userSpaceOnUse">
<stop stop-color="#00CBFF"/>
<stop offset="1" stop-color="#00B9FF" stop-opacity="0.01"/>
</linearGradient>
<linearGradient id="paint4_linear_186_4277" x1="10.5326" y1="43.8477" x2="10.5326" y2="58.5556" gradientUnits="userSpaceOnUse">
<stop stop-color="#95BCFF" stop-opacity="0.01"/>
<stop offset="1" stop-color="#95BCFF"/>
</linearGradient>
<linearGradient id="paint5_linear_186_4277" x1="1.40316" y1="32.2559" x2="1.40316" y2="54.7405" gradientUnits="userSpaceOnUse">
<stop stop-color="#203058"/>
<stop offset="1" stop-color="#95BCFF"/>
</linearGradient>
<linearGradient id="paint6_linear_186_4277" x1="0.999973" y1="32.2559" x2="0.999973" y2="55.0839" gradientUnits="userSpaceOnUse">
<stop stop-color="#95BCFF" stop-opacity="0.01"/>
<stop offset="1" stop-color="#95BCFF"/>
</linearGradient>
<linearGradient id="paint7_linear_186_4277" x1="1.40319" y1="28.7842" x2="1.40319" y2="51.2688" gradientUnits="userSpaceOnUse">
<stop stop-color="#21305A"/>
<stop offset="1" stop-color="#95BCFF"/>
</linearGradient>
<linearGradient id="paint8_linear_186_4277" x1="9.27363" y1="35.8319" x2="9.27363" y2="51.6122" gradientUnits="userSpaceOnUse">
<stop stop-color="#95BCFF" stop-opacity="0.01"/>
<stop offset="1" stop-color="#95BCFF"/>
</linearGradient>
<linearGradient id="paint9_linear_186_4277" x1="27.1041" y1="2.85844" x2="27.1041" y2="50.4418" gradientUnits="userSpaceOnUse">
<stop stop-color="#95BCFF"/>
<stop offset="0.995192" stop-color="#95BCFF" stop-opacity="0"/>
</linearGradient>
</defs>
</svg>
