<svg width="46" height="20" viewBox="0 0 46 20" fill="none" xmlns="http://www.w3.org/2000/svg">
<rect x="-0.000976562" width="46" height="20" rx="10" fill="#FF6900"/>
<path d="M28.2744 13.0859V14H22.9834V5.74414H24.1025V13.0859H28.2744ZM34.749 13.1035V14H29.2822V13.2559C29.4814 12.7988 29.7217 12.3945 30.0029 12.043C30.2881 11.6914 30.5908 11.375 30.9111 11.0938C31.2314 10.8125 31.5479 10.5508 31.8604 10.3086C32.0166 10.1875 32.1631 10.0664 32.2998 9.94531C32.4404 9.82422 32.5732 9.70312 32.6982 9.58203C32.9482 9.33984 33.1494 9.08594 33.3018 8.82031C33.458 8.55469 33.5361 8.25391 33.5361 7.91797C33.5361 7.46484 33.4033 7.11328 33.1377 6.86328C32.8721 6.61328 32.5029 6.48828 32.0303 6.48828C31.5811 6.48828 31.21 6.61133 30.917 6.85742C30.6279 7.09961 30.458 7.44141 30.4072 7.88281L29.3291 7.7832C29.4072 7.12305 29.6865 6.59766 30.167 6.20703C30.6514 5.81641 31.2725 5.62109 32.0303 5.62109C32.8623 5.62109 33.501 5.81836 33.9463 6.21289C34.3955 6.60352 34.6201 7.16016 34.6201 7.88281C34.6201 8.20312 34.5459 8.52148 34.3975 8.83789C34.2529 9.1543 34.0361 9.4707 33.7471 9.78711C33.6025 9.94336 33.3916 10.1445 33.1143 10.3906C32.8369 10.6367 32.4951 10.9258 32.0889 11.2578C31.6396 11.625 31.2822 11.957 31.0166 12.2539C30.751 12.5469 30.5596 12.8301 30.4424 13.1035H34.749Z" fill="white"/>
<path d="M11.9984 6.70059C14.1524 6.70059 15.8984 8.44659 15.8984 10.6006V13.6006H10.4984V10.9006H9.5984V13.6006H8.0984V10.6006C8.0984 8.44659 9.8444 6.70059 11.9984 6.70059ZM7.8863 6.00219L8.9468 7.06269L8.3108 7.69899L7.25 6.63849L7.886 6.00219H7.8863ZM16.1105 6.00219L16.7468 6.63819L15.6863 7.69899L15.05 7.06299L16.1105 6.00219ZM12.4484 4.60059V6.10059H11.5484V4.60059H12.4484ZM7.4984 14.3806H16.4984V15.2806H7.4984V14.3806Z" fill="white"/>
</svg>
