<svg width="46" height="20" viewBox="0 0 46 20" fill="none" xmlns="http://www.w3.org/2000/svg">
<rect x="-0.000976562" width="46" height="20" rx="10" fill="#FE9900"/>
<path d="M28.2744 13.0859V14H22.9834V5.74414H24.1025V13.0859H28.2744ZM34.8252 11.7207C34.8252 12.4824 34.583 13.0723 34.0986 13.4902C33.6143 13.9082 32.9229 14.1172 32.0244 14.1172C31.1885 14.1172 30.5205 13.9297 30.0205 13.5547C29.5244 13.1758 29.2295 12.6172 29.1357 11.8789L30.2256 11.7793C30.3662 12.7559 30.9658 13.2441 32.0244 13.2441C32.5557 13.2441 32.9717 13.1133 33.2725 12.8516C33.5771 12.5898 33.7295 12.2012 33.7295 11.6855C33.7295 11.2363 33.5557 10.8867 33.208 10.6367C32.8643 10.3828 32.3662 10.2559 31.7139 10.2559H31.1162V9.3418H31.6904C32.2686 9.3418 32.7158 9.2168 33.0322 8.9668C33.3525 8.71289 33.5127 8.36328 33.5127 7.91797C33.5127 7.47656 33.3818 7.12891 33.1201 6.875C32.8623 6.61719 32.4775 6.48828 31.9658 6.48828C31.501 6.48828 31.124 6.60742 30.835 6.8457C30.5498 7.08398 30.3838 7.41992 30.3369 7.85352L29.2764 7.77148C29.3545 7.0957 29.6338 6.56836 30.1143 6.18945C30.5986 5.81055 31.2197 5.62109 31.9775 5.62109C32.8057 5.62109 33.4482 5.81445 33.9053 6.20117C34.3662 6.58398 34.5967 7.11914 34.5967 7.80664C34.5967 8.33398 34.4482 8.76367 34.1514 9.0957C33.8584 9.42383 33.4307 9.64648 32.8682 9.76367V9.78711C33.4854 9.85352 33.9658 10.0605 34.3096 10.4082C34.6533 10.7559 34.8252 11.1934 34.8252 11.7207Z" fill="white"/>
<path d="M11.9984 6.70059C14.1524 6.70059 15.8984 8.44659 15.8984 10.6006V13.6006H10.4984V10.9006H9.5984V13.6006H8.0984V10.6006C8.0984 8.44659 9.8444 6.70059 11.9984 6.70059ZM7.8863 6.00219L8.9468 7.06269L8.3108 7.69899L7.25 6.63849L7.886 6.00219H7.8863ZM16.1105 6.00219L16.7468 6.63819L15.6863 7.69899L15.05 7.06299L16.1105 6.00219ZM12.4484 4.60059V6.10059H11.5484V4.60059H12.4484ZM7.4984 14.3806H16.4984V15.2806H7.4984V14.3806Z" fill="white"/>
</svg>
