<svg width="46" height="20" viewBox="0 0 46 20" fill="none" xmlns="http://www.w3.org/2000/svg">
<rect x="-0.000976562" width="46" height="20" rx="10" fill="#DA2D2C"/>
<path d="M28.2744 13.0859V14H22.9834V5.74414H24.1025V13.0859H28.2744ZM34.7666 13.1035V14H29.5928V13.1035H31.6963V6.75195L29.833 8.08203V7.08594L31.7842 5.74414H32.7568V13.1035H34.7666Z" fill="white"/>
<path d="M11.9984 6.70059C14.1524 6.70059 15.8984 8.44659 15.8984 10.6006V13.6006H10.4984V10.9006H9.5984V13.6006H8.0984V10.6006C8.0984 8.44659 9.8444 6.70059 11.9984 6.70059ZM7.8863 6.00219L8.9468 7.06269L8.3108 7.69899L7.25 6.63849L7.886 6.00219H7.8863ZM16.1105 6.00219L16.7468 6.63819L15.6863 7.69899L15.05 7.06299L16.1105 6.00219ZM12.4484 4.60059V6.10059H11.5484V4.60059H12.4484ZM7.4984 14.3806H16.4984V15.2806H7.4984V14.3806Z" fill="white"/>
</svg>
