<svg width="20" height="20" viewBox="0 0 20 20" fill="none" xmlns="http://www.w3.org/2000/svg">
<path d="M9.99963 19.0445C10.3496 19.0364 10.6854 18.9049 10.9477 18.6731C11.2101 18.4413 11.3819 18.1241 11.433 17.7778H8.51074C8.56323 18.1336 8.74314 18.4581 9.01702 18.6911C9.2909 18.9241 9.64009 19.0497 9.99963 19.0445Z" fill="white"/>
<path d="M10.0303 0.986328C10.2269 0.986351 10.4156 1.06412 10.5547 1.20312C10.6937 1.34215 10.7714 1.53094 10.7715 1.72754V2.44434C11.1219 2.4965 11.4663 2.58034 11.8008 2.69434C12.8289 3.03079 13.7536 3.64145 14.4707 4.46875C15.4203 5.56441 15.942 6.96707 15.9385 8.41699V11.1611C16.008 12.0928 16.2631 13.0012 16.6885 13.833C17.0713 14.4342 17.5328 14.982 18.0605 15.4609L18.25 15.6279V17.1943H1.69434V15.6279L1.88281 15.4609C2.41069 14.9819 2.87204 14.4343 3.25488 13.833C3.68026 13.0011 3.93531 12.0929 4.00488 11.1611V8.41699C4.0014 6.96707 4.52302 5.56441 5.47266 4.46875C6.17835 3.65459 7.08525 3.05064 8.09375 2.71094C8.44348 2.5883 8.80444 2.49906 9.17188 2.44434V1.72754C9.17195 1.53098 9.2497 1.34214 9.38867 1.20312C9.52766 1.06414 9.71655 0.986448 9.91309 0.986328C9.93266 0.986328 9.95231 0.990657 9.97168 0.992188C9.99117 0.990638 10.0106 0.986328 10.0303 0.986328Z" fill="white"/>
</svg>
