<svg width="56" height="59" viewBox="0 0 56 59" fill="none" xmlns="http://www.w3.org/2000/svg">
<path opacity="0.154715" d="M27.6484 28.6572L1.15039 39.4775V11.043L27.6484 0.222656V28.6572Z" fill="url(#paint0_linear_186_4230)" stroke="url(#paint1_linear_186_4230)" stroke-width="0.3" stroke-linejoin="round"/>
<path opacity="0.154715" d="M26.9541 28.6572L53.4521 39.4775L53.4521 11.043L26.9541 0.222656L26.9541 28.6572Z" fill="url(#paint2_linear_186_4230)" stroke="url(#paint3_linear_186_4230)" stroke-width="0.3" stroke-linejoin="round"/>
<path opacity="0.150437" fill-rule="evenodd" clip-rule="evenodd" d="M1 46.4419L27.7734 58.5556L54.5975 46.4439L27.8241 35.7275L1 46.4419V46.4419Z" stroke="url(#paint4_linear_186_4230)" stroke-width="0.6"/>
<path opacity="0.304594" fill-rule="evenodd" clip-rule="evenodd" d="M1 42.9703L27.7734 55.0839L54.5975 42.9722L27.8241 32.2559L1 42.9703Z" fill="url(#paint5_linear_186_4230)" fill-opacity="0.8" stroke="url(#paint6_linear_186_4230)" stroke-width="0.3" stroke-linejoin="bevel"/>
<path fill-rule="evenodd" clip-rule="evenodd" d="M1 39.4986L27.7734 51.6122L54.5975 39.5005L27.8241 28.7842L1 39.4986Z" fill="url(#paint7_linear_186_4230)" fill-opacity="0.5" stroke="url(#paint8_linear_186_4230)" stroke-width="1.2" stroke-linejoin="bevel"/>
<path d="M11.1852 12.2686L14.1317 15.215C11.1156 18.231 9.2501 22.3977 9.2501 27.0002C9.2501 31.6024 11.1156 35.7691 14.1317 38.7852L11.1852 41.7316C7.41521 37.9616 5.08344 32.7533 5.08344 27.0002C5.08344 21.247 7.41521 16.0386 11.1852 12.2686ZM44.8149 12.2686C48.5851 16.0386 50.9168 21.247 50.9168 27.0002C50.9168 32.7533 48.5851 37.9616 44.8149 41.7316L41.8686 38.7852C44.8847 35.7691 46.7501 31.6024 46.7501 27.0002C46.7501 22.3988 44.8855 18.2329 41.8707 15.217L44.8149 12.2686ZM30.0834 12.4167V24.9168H36.3334L25.9168 41.5835V29.0835H19.6668L30.0834 12.4167ZM17.0779 18.1612L20.0242 21.1075C18.5162 22.6156 17.5834 24.6989 17.5834 27.0002C17.5834 29.3012 18.5162 31.3845 20.0242 32.8927L17.0779 35.8389C14.8159 33.5768 13.4168 30.4518 13.4168 27.0002C13.4168 23.5483 14.8159 20.4233 17.0779 18.1612ZM38.9243 18.1633C41.1851 20.4252 42.5834 23.5493 42.5834 27.0002C42.5834 30.4518 41.1843 33.5768 38.9222 35.8389L35.9759 32.8927C37.4841 31.3845 38.4168 29.3012 38.4168 27.0002C38.4168 24.7 37.4849 22.6175 35.978 21.1096L38.9243 18.1633Z" fill="url(#paint9_linear_186_4230)"/>
<defs>
<linearGradient id="paint0_linear_186_4230" x1="-4.37505" y1="31.4641" x2="24.6108" y2="39.3128" gradientUnits="userSpaceOnUse">
<stop stop-color="#95BCFF"/>
<stop offset="1" stop-color="#1A2A4E"/>
</linearGradient>
<linearGradient id="paint1_linear_186_4230" x1="-4.85745" y1="31.1537" x2="24.5057" y2="39.8181" gradientUnits="userSpaceOnUse">
<stop stop-color="#00CBFF"/>
<stop offset="1" stop-color="#00B9FF" stop-opacity="0.01"/>
</linearGradient>
<linearGradient id="paint2_linear_186_4230" x1="58.9776" y1="31.4641" x2="29.9918" y2="39.3128" gradientUnits="userSpaceOnUse">
<stop stop-color="#95BCFF"/>
<stop offset="1" stop-color="#1C2C52"/>
</linearGradient>
<linearGradient id="paint3_linear_186_4230" x1="59.46" y1="31.1537" x2="30.0968" y2="39.8181" gradientUnits="userSpaceOnUse">
<stop stop-color="#00CBFF"/>
<stop offset="1" stop-color="#00B9FF" stop-opacity="0.01"/>
</linearGradient>
<linearGradient id="paint4_linear_186_4230" x1="10.5326" y1="43.8477" x2="10.5326" y2="58.5556" gradientUnits="userSpaceOnUse">
<stop stop-color="#95BCFF" stop-opacity="0.01"/>
<stop offset="1" stop-color="#95BCFF"/>
</linearGradient>
<linearGradient id="paint5_linear_186_4230" x1="1.40316" y1="32.2559" x2="1.40316" y2="54.7405" gradientUnits="userSpaceOnUse">
<stop stop-color="#203058"/>
<stop offset="1" stop-color="#95BCFF"/>
</linearGradient>
<linearGradient id="paint6_linear_186_4230" x1="0.999973" y1="32.2559" x2="0.999973" y2="55.0839" gradientUnits="userSpaceOnUse">
<stop stop-color="#95BCFF" stop-opacity="0.01"/>
<stop offset="1" stop-color="#95BCFF"/>
</linearGradient>
<linearGradient id="paint7_linear_186_4230" x1="1.40319" y1="28.7842" x2="1.40319" y2="51.2688" gradientUnits="userSpaceOnUse">
<stop stop-color="#21305A"/>
<stop offset="1" stop-color="#95BCFF"/>
</linearGradient>
<linearGradient id="paint8_linear_186_4230" x1="9.27363" y1="35.8319" x2="9.27363" y2="51.6122" gradientUnits="userSpaceOnUse">
<stop stop-color="#95BCFF" stop-opacity="0.01"/>
<stop offset="1" stop-color="#95BCFF"/>
</linearGradient>
<linearGradient id="paint9_linear_186_4230" x1="26.5921" y1="11.4814" x2="26.5921" y2="42.069" gradientUnits="userSpaceOnUse">
<stop stop-color="#95BCFF"/>
<stop offset="0.995192" stop-color="#95BCFF" stop-opacity="0"/>
</linearGradient>
</defs>
</svg>
