<svg width="24" height="24" viewBox="0 0 24 24" fill="none" xmlns="http://www.w3.org/2000/svg">
<path d="M12 16.2054C12.8366 16.2097 13.6556 15.9654 14.3531 15.5034C15.0506 15.0414 15.5951 14.3826 15.9175 13.6106C16.2399 12.8386 16.3257 11.9882 16.1639 11.1674C16.0022 10.3465 15.6002 9.59226 15.009 9.0003C14.4178 8.40834 13.6641 8.00537 12.8434 7.84255C12.0228 7.67972 11.1723 7.76438 10.3999 8.08579C9.62748 8.40719 8.96796 8.95084 8.50507 9.64773C8.04217 10.3446 7.79676 11.1633 7.8 11.9999C7.80143 13.1139 8.24422 14.1819 9.03141 14.9701C9.81859 15.7583 10.886 16.2025 12 16.2054ZM2.18181 11.9999C2.18148 11.3026 2.24723 10.6067 2.37818 9.92176C2.96765 9.85553 3.53239 9.64786 4.02434 9.31641C4.51628 8.98497 4.92086 8.53957 5.20363 8.01813C5.50557 7.4724 5.67565 6.8636 5.70027 6.2404C5.7249 5.6172 5.60338 4.99689 5.34545 4.42904C6.38881 3.4135 7.6471 2.64548 9.02727 2.18176C9.35175 2.68967 9.79892 3.10768 10.3275 3.39724C10.8561 3.6868 11.4491 3.83858 12.0518 3.83858C12.6545 3.83858 13.2475 3.6868 13.7761 3.39724C14.3047 3.10768 14.7519 2.68967 15.0764 2.18176C16.4528 2.6565 17.7053 3.43373 18.7418 4.45631C18.4916 5.02261 18.3771 5.63951 18.4074 6.25788C18.4377 6.87625 18.612 7.479 18.9164 8.01813C19.1951 8.51781 19.5869 8.94531 20.0605 9.2664C20.5341 9.58749 21.0763 9.79325 21.6436 9.86722C21.9375 11.3648 21.9115 12.9076 21.5673 14.3945C21.0126 14.4894 20.4867 14.7091 20.0294 15.037C19.5721 15.3649 19.1952 15.7924 18.9273 16.2872C18.6514 16.7818 18.4843 17.3297 18.4373 17.8941C18.3902 18.4585 18.4643 19.0265 18.6545 19.5599C17.5769 20.5938 16.2762 21.3664 14.8527 21.8181C14.5183 21.3866 14.0896 21.0374 13.5994 20.7971C13.1091 20.5568 12.5705 20.4319 12.0245 20.4319C11.4786 20.4319 10.9399 20.5568 10.4497 20.7971C9.95952 21.0374 9.53079 21.3866 9.19636 21.8181C7.796 21.3707 6.51622 20.6095 5.45454 19.5927C5.65636 19.0521 5.73844 18.4741 5.69512 17.8987C5.65181 17.3234 5.48411 16.7642 5.20363 16.2599C4.92995 15.7512 4.54055 15.3138 4.06682 14.9832C3.59309 14.6525 3.0483 14.4378 2.47636 14.3563C2.29195 13.5841 2.19317 12.7938 2.18181 11.9999Z" fill="white"/>
</svg>
