<svg width="50" height="35" viewBox="0 0 50 35" fill="none" xmlns="http://www.w3.org/2000/svg">
<g clip-path="url(#clip0_186_6223)">
<path d="M0 24.3524H4.4121L15.909 0H11.2329L2.21398 19.3388L0 24.3524Z" fill="#FF6900"/>
<path d="M49.8528 24.3524H45.4421L33.9438 0H38.6213L47.6388 19.3388L49.8528 24.3524Z" fill="#FF6900"/>
<path d="M21.3379 8.60208L24.9466 16.3417L26.5173 12.9738L23.9182 7.39917L21.3379 8.60208Z" fill="white"/>
<path d="M23.4696 6.44003L20.4681 0H17.3267L20.8892 7.64294L23.4696 6.44003Z" fill="white"/>
<path d="M33.9439 0L24.9264 19.3388L20.1739 9.14585L16.3315 10.9372L22.7124 24.3538H27.1245L38.6214 0H33.9439Z" fill="white"/>
<path d="M19.7254 8.18525L15.909 0H11.2329L15.8844 9.97663L19.7254 8.18525Z" fill="white"/>
<path d="M29.0198 34.2974L26.5072 28.2742H26.4913H25.3519H25.336L22.8235 34.2974H23.9788L25.9216 29.6401L27.8644 34.2974H29.0198Z" fill="white"/>
<path d="M0.139893 34.2136V28.3591H1.03558L3.5943 32.6328H3.12554L5.64385 28.3591H6.53809L6.5554 34.2136H5.51548V29.9731H5.72461L3.5943 33.5602H3.10101L0.925976 29.9803H1.17694V34.2208L0.139893 34.2136Z" fill="white"/>
<path d="M15.8845 34.2136V28.3591H16.7788L20.451 32.8751H20.0082V28.3591H21.0784V34.2136H20.1827L16.5192 29.6962H16.9634V34.2136H15.8845Z" fill="white"/>
<path d="M30.811 34.2136V28.3591H33.2082C33.989 28.3591 34.601 28.5442 35.0443 28.9144C35.2647 29.1011 35.4393 29.3359 35.5546 29.6007C35.6699 29.8656 35.7228 30.1533 35.7092 30.4419C35.7198 30.8313 35.6149 31.2153 35.4078 31.5453C35.1949 31.8617 34.8941 32.1089 34.5424 32.2563C34.1205 32.4337 33.6657 32.5192 33.2082 32.5073H31.4111L31.887 32.0227V34.2136H30.811ZM31.8986 32.1395L31.4226 31.6116H33.1707C33.6515 31.6116 34.0125 31.5087 34.2539 31.3029C34.3762 31.1958 34.4726 31.0622 34.5356 30.9122C34.5985 30.7623 34.6265 30.5999 34.6174 30.4375C34.6274 30.275 34.5998 30.1124 34.5368 29.9624C34.4737 29.8123 34.3769 29.6787 34.2539 29.5721C34.0097 29.3692 33.6486 29.2673 33.1707 29.2664H31.4226L31.8986 28.7313V32.1395ZM34.639 34.2136L33.1592 32.089H34.3217L35.8102 34.2136H34.639Z" fill="white"/>
<path d="M40.6333 34.2974C40.2077 34.3023 39.7849 34.2269 39.3871 34.0752C39.0203 33.9346 38.6855 33.7217 38.4025 33.4492C38.1196 33.1766 37.8943 32.85 37.74 32.4887C37.4285 31.716 37.4285 30.8527 37.74 30.08C37.8937 29.7209 38.1184 29.3966 38.4006 29.1266C38.6873 28.8523 39.0256 28.6376 39.3958 28.4949C40.2239 28.1919 41.1341 28.2011 41.9559 28.5208C42.3465 28.6796 42.6929 28.9305 42.9656 29.2521L42.2632 29.9127C42.0592 29.6951 41.814 29.5201 41.542 29.3978C41.2751 29.2831 40.9873 29.2251 40.6968 29.2276C40.4099 29.2217 40.1245 29.2706 39.8559 29.3718C39.6086 29.4697 39.3839 29.6169 39.1953 29.8045C39.0092 29.9909 38.8621 30.2125 38.7626 30.4564C38.5511 30.9881 38.5511 31.5806 38.7626 32.1122C38.8624 32.3564 39.0095 32.5784 39.1953 32.7656C39.3838 32.9532 39.6086 33.1005 39.8559 33.1983C40.1245 33.2995 40.4099 33.3484 40.6968 33.3425C40.9874 33.3445 41.2752 33.286 41.542 33.1709C41.8161 33.0483 42.0617 32.87 42.2632 32.6473L42.9656 33.3094C42.6924 33.6314 42.3462 33.8836 41.9559 34.045C41.5366 34.2173 41.0867 34.3031 40.6333 34.2974Z" fill="white"/>
<path d="M44.8062 34.2136V28.3591H45.9009V34.2136H44.8062ZM45.8158 31.7039V30.775H49.0106V31.7039H45.8158ZM48.9269 34.2136V28.3591H50.0058V34.2136H48.9269Z" fill="white"/>
<path d="M11.217 28.2756C9.61745 28.2756 8.31934 29.6228 8.31934 31.2858C8.31934 32.9488 9.61745 34.2974 11.217 34.2974C12.8166 34.2974 14.1161 32.9488 14.1161 31.2858C14.1161 29.6228 12.818 28.2756 11.217 28.2756ZM11.2415 33.4435C10.128 33.4435 9.22224 32.4757 9.22224 31.28C9.22224 30.0843 10.128 29.1165 11.2415 29.1165C12.355 29.1165 13.2608 30.0843 13.2608 31.28C13.2608 32.4757 12.3564 33.4435 11.2415 33.4435Z" fill="white"/>
</g>
<defs>
<clipPath id="clip0_186_6223">
<rect width="50" height="34.2973" fill="white"/>
</clipPath>
</defs>
</svg>
