<svg width="400" height="275" viewBox="0 0 400 275" fill="none" xmlns="http://www.w3.org/2000/svg">
<g clip-path="url(#clip0_864_1181)">
<path d="M0 194.819H35.2968L127.272 0H89.8633L17.7119 154.711L0 194.819Z" fill="#FF6900"/>
<path d="M398.822 194.819H363.537L271.551 0H308.971L381.111 154.711L398.822 194.819Z" fill="#FF6900"/>
<path d="M170.703 68.8169L199.573 130.733L212.139 103.791L191.346 59.1936L170.703 68.8169Z" fill="#003C71"/>
<path d="M187.757 51.5202L163.745 0H138.613L167.114 61.1435L187.757 51.5202Z" fill="#003C71"/>
<path d="M271.551 0L199.411 154.711L161.391 73.1668L130.652 87.4978L181.699 194.831H216.996L308.971 0H271.551Z" fill="#003C71"/>
<path d="M157.803 65.482L127.272 0H89.8633L127.076 79.8131L157.803 65.482Z" fill="#003C71"/>
<path d="M232.158 274.378L212.058 226.193H211.931H202.815H202.688L182.588 274.378H191.83L207.373 237.12L222.916 274.378H232.158Z" fill="#003C71"/>
<path d="M1.11914 273.709V226.874H8.28462L28.7544 261.063H25.0043L45.1508 226.874H52.3047L52.4432 273.709H44.1238V239.786H45.7969L28.7544 268.482H24.8081L7.40781 239.843H9.41553V273.767L1.11914 273.709Z" fill="#003C71"/>
<path d="M127.076 273.709V226.874H134.23L163.608 263.001H160.065V226.874H168.627V273.709H161.461L132.153 237.57H135.707V273.709H127.076Z" fill="#003C71"/>
<path d="M246.49 273.709V226.874H265.668C271.914 226.874 276.81 228.355 280.356 231.316C282.12 232.809 283.517 234.688 284.439 236.806C285.361 238.925 285.784 241.227 285.676 243.536C285.76 246.652 284.921 249.723 283.264 252.363C281.561 254.894 279.154 256.872 276.341 258.051C272.966 259.47 269.327 260.155 265.668 260.059H251.29L255.098 256.182V273.709H246.49ZM255.19 257.117L251.383 252.894H265.368C269.214 252.894 272.102 252.07 274.033 250.424C275.012 249.567 275.783 248.498 276.286 247.298C276.79 246.099 277.014 244.8 276.941 243.501C277.021 242.201 276.8 240.9 276.296 239.7C275.792 238.499 275.017 237.431 274.033 236.578C272.079 234.955 269.191 234.139 265.368 234.132H251.383L255.19 229.851V257.117ZM277.114 273.709L265.275 256.713H274.575L286.483 273.709H277.114Z" fill="#003C71"/>
<path d="M325.068 274.378C321.663 274.418 318.281 273.815 315.099 272.602C312.164 271.477 309.486 269.773 307.222 267.593C304.958 265.412 303.156 262.799 301.922 259.909C299.43 253.728 299.43 246.821 301.922 240.639C303.151 237.767 304.949 235.172 307.207 233.012C309.501 230.818 312.207 229.1 315.168 227.958C321.794 225.535 329.075 225.609 335.649 228.166C338.774 229.436 341.546 231.443 343.727 234.016L338.107 239.301C336.475 237.56 334.514 236.16 332.338 235.182C330.203 234.264 327.9 233.801 325.576 233.82C323.281 233.773 320.998 234.165 318.849 234.974C316.871 235.757 315.073 236.935 313.564 238.436C312.075 239.927 310.899 241.7 310.103 243.651C308.411 247.904 308.411 252.644 310.103 256.897C310.901 258.851 312.078 260.627 313.564 262.124C315.073 263.625 316.871 264.803 318.849 265.586C320.998 266.395 323.281 266.787 325.576 266.74C327.901 266.755 330.203 266.288 332.338 265.367C334.531 264.386 336.496 262.96 338.107 261.178L343.727 266.474C341.541 269.051 338.772 271.068 335.649 272.359C332.294 273.738 328.695 274.424 325.068 274.378Z" fill="#003C71"/>
<path d="M358.449 273.709V226.874H367.207V273.709H358.449ZM366.526 253.632V246.201H392.085V253.632H366.526ZM391.415 273.709V226.874H400.046V273.709H391.415Z" fill="#003C71"/>
<path d="M89.736 226.204C76.9396 226.204 66.5547 236.982 66.5547 250.286C66.5547 263.59 76.9396 274.378 89.736 274.378C102.532 274.378 112.929 263.59 112.929 250.286C112.929 236.982 102.544 226.204 89.736 226.204ZM89.9321 267.547C81.0242 267.547 73.7779 259.805 73.7779 250.239C73.7779 240.674 81.0242 232.931 89.9321 232.931C98.8399 232.931 106.086 240.674 106.086 250.239C106.086 259.805 98.8515 267.547 89.9321 267.547Z" fill="#003C71"/>
</g>
<defs>
<clipPath id="clip0_864_1181">
<rect width="400" height="274.378" fill="white"/>
</clipPath>
</defs>
</svg>
