<svg width="16" height="16" viewBox="0 0 16 16" fill="none" xmlns="http://www.w3.org/2000/svg">
<path fill-rule="evenodd" clip-rule="evenodd" d="M7.33329 3.00033C4.94006 3.00033 2.99996 4.94042 2.99996 7.33366C2.99996 9.72689 4.94006 11.667 7.33329 11.667C8.53009 11.667 9.61251 11.1827 10.3974 10.3978C11.1823 9.61288 11.6666 8.53046 11.6666 7.33366C11.6666 4.94042 9.72653 3.00033 7.33329 3.00033ZM1.66663 7.33366C1.66663 4.20405 4.20368 1.66699 7.33329 1.66699C10.4629 1.66699 13 4.20405 13 7.33366C13 8.65796 12.545 9.87692 11.7839 10.8415L14.3047 13.3623L13.3619 14.3051L10.8411 11.7843C9.87656 12.5454 8.6576 13.0003 7.33329 13.0003C4.20368 13.0003 1.66663 10.4633 1.66663 7.33366ZM9.66663 8.00033H4.99996V6.66699H9.66663V8.00033Z" fill="#333333"/>
</svg>
